Coordinates
version=1
nRows=6
nColumns=36
inDegrees=yes

Units are S.I. units (second, meters, Newtons, ...)
If the header above contains a line with 'inDegrees', this indicates whether rotational values are in degrees (yes) or radians (no).

endheader
time	pelvis_tilt	pelvis_list	pelvis_rotation	pelvis_tx	pelvis_ty	pelvis_tz	hip_flexion_r	hip_adduction_r	hip_rotation_r	knee_angle_r	knee_angle_r_beta	ankle_angle_r	subtalar_angle_r	mtp_angle_r	hip_flexion_l	hip_adduction_l	hip_rotation_l	knee_angle_l	knee_angle_l_beta	ankle_angle_l	subtalar_angle_l	mtp_angle_l	lumbar_extension	lumbar_bending	lumbar_rotation	arm_flex_r	arm_add_r	arm_rot_r	elbow_flex_r	pro_sup_r	arm_flex_l	arm_add_l	arm_rot_l	elbow_flex_l	pro_sup_l
      2.98305090	     -2.43797627	     -0.41413473	     -0.59328878	      0.13365270	      0.76880471	     -0.07427222	     58.78311602	     -6.85966040	      7.70596772	     90.31466101	      1.57628820	     30.68978084	     -4.38097687	     -7.49999987	     57.54931114	     -1.63302140	      3.03686618	     94.95915955	      1.65734999	     30.47395800	    -14.43412558	     -7.49999987	    -46.22174311	      2.70609351	     -0.98904623	     34.33270006	    -13.96317206	      8.25440083	     64.18565842	     80.81851944	     43.24678946	    -10.75885598	      8.10362643	     73.40432544	     72.49453883
      3.00000000	     -3.73683679	     -0.36740990	     -0.31538387	      0.14394237	      0.78515329	     -0.04964283	     59.05448410	     -5.74438939	      6.75047892	     88.46671719	      1.54403549	     29.79843930	     -5.19625159	     -7.49999987	     57.70881544	     -2.59958153	      3.81384943	     92.47483074	      1.61399027	     28.82695949	    -13.32067718	     -7.49999987	    -44.41823291	      1.42501088	      0.66642057	     39.22000336	    -15.35837409	      4.81569188	     75.96306643	     85.71479440	     53.00246468	    -11.94169628	      7.82575495	     81.43603360	     70.33474744
      3.01694910	     -5.06985079	     -0.33880236	      0.04943980	      0.17023660	      0.79738482	     -0.07511471	     57.57426993	     -5.80904666	      6.44419937	     85.38677069	      1.49028029	     28.70451567	     -6.16001711	     -7.49999987	     56.59999506	     -2.44140456	      4.04944327	     89.53103409	      1.56261133	     27.67141939	    -13.43873785	     -7.49999987	    -40.16328101	      1.04564322	      0.88448584	     44.00769267	    -18.60829960	      2.91283102	     91.38395192	     86.14453272	     58.00992203	    -10.10382787	      5.54934206	     91.05236260	     71.30653512
      3.03389830	     -6.42588648	     -0.39106199	      0.29472662	      0.17677626	      0.80748621	     -0.08084600	     55.88704433	     -5.96970394	      6.21247521	     81.87884100	      1.42905536	     27.80958207	     -6.46554827	     -7.49999987	     55.44499176	     -2.30994084	      3.87428321	     86.29905720	      1.50620269	     27.11700732	    -13.82143928	     -7.49999987	    -33.85028120	      0.40422120	      0.03101177	     51.14622311	    -21.08439590	      5.39907508	    109.11481994	     86.53711811	     65.23807268	     -9.04346315	      7.55661314	    101.42873484	     72.21998448
      3.05084750	     -7.17562442	     -0.66488434	      0.21115051	      0.18057841	      0.83930876	     -0.08162000	     52.99941076	     -5.61502520	      6.04894434	     76.84415207	      1.34118346	     26.03609383	     -7.20038549	     -7.49999987	     52.85370861	     -2.30966964	      3.84305080	     81.49595257	      1.42237270	     25.56492921	    -14.03868582	     -7.49999987	    -28.42128946	     -0.88539409	      0.02459903	     59.63563725	    -20.50455935	     10.76462766	    115.98574738	     86.85572605	     72.08807080	     -2.54157179	      8.10481238	    102.94954005	     72.70220103
      3.06779660	     -7.60857947	     -1.08904596	      0.13719857	      0.19138408	      0.85945373	     -0.08255339	     49.75130929	     -4.97402172	      5.90189072	     71.57574952	      1.24923249	     23.98149227	     -8.55099168	     -7.49999987	     50.19729892	     -2.67797407	      3.64692588	     77.05826833	      1.34492050	     24.12054907	    -13.77924479	     -7.49999987	    -23.56112816	     -1.85802265	     -3.01684168	     69.08149616	    -17.83038364	     15.36220271	    104.14301574	     99.91503398	     87.85245149	    -11.59796572	     21.76369356	    103.00038305	     83.77818198
